<svg width="120" height="120" viewBox="0 0 120 120" fill="none" xmlns="http://www.w3.org/2000/svg">
<circle cx="60" cy="60" r="57.5" stroke="white" stroke-width="5"/>
<path d="M64.4129 81.288C64.0929 81.608 63.6449 81.896 63.0689 82.152C62.4929 82.344 61.8529 82.536 61.1489 82.728C60.5089 82.92 59.8369 83.08 59.1329 83.208C58.4289 83.272 57.7889 83.304 57.2129 83.304L36.3809 33C35.9329 37.992 35.4849 43.08 35.0369 48.264C34.6529 53.384 34.2689 58.472 33.8849 63.528C33.5649 68.52 33.2449 73.448 32.9249 78.312C32.6689 83.112 32.4449 87.72 32.2529 92.136C31.2929 92.712 30.0769 93.096 28.6049 93.288C27.1969 93.544 25.7889 93.672 24.3809 93.672C25.7249 82.536 27.1649 71.24 28.7009 59.784C30.2369 48.328 31.8049 36.936 33.4049 25.608C34.3009 25.096 35.4849 24.68 36.9569 24.36C38.4289 23.976 39.8049 23.784 41.0849 23.784L62.0129 75.528C65.2769 67.336 68.6049 59.016 71.9969 50.568C75.4529 42.12 78.8129 33.704 82.0769 25.32C83.1009 24.808 84.2849 24.424 85.6289 24.168C87.0369 23.912 88.3809 23.784 89.6609 23.784L97.7249 92.232C96.8289 92.744 95.6449 93.096 94.1729 93.288C92.7009 93.544 91.2609 93.672 89.8529 93.672L83.0369 34.344C79.8369 42.344 76.6369 50.312 73.4369 58.248C70.3009 66.184 67.2929 73.864 64.4129 81.288Z" fill="white"/>
</svg>
