<svg width="25" height="43" viewBox="0 0 25 43" fill="none" xmlns="http://www.w3.org/2000/svg">
<path fill-rule="evenodd" clip-rule="evenodd" d="M23.5637 0.477405C23.7238 0.628353 23.8507 0.807674 23.9374 1.0051C24.024 1.20252 24.0686 1.41416 24.0686 1.6279C24.0686 1.84165 24.024 2.05329 23.9374 2.25071C23.8507 2.44814 23.7238 2.62746 23.5637 2.77841L4.15213 21.1279L23.5637 39.4774C23.8864 39.7825 24.0677 40.1964 24.0677 40.6279C24.0677 41.0594 23.8864 41.4733 23.5637 41.7784C23.241 42.0835 22.8032 42.255 22.3468 42.255C21.8904 42.255 21.4527 42.0835 21.1299 41.7784L0.504946 22.2784C0.344885 22.1275 0.217894 21.9481 0.131247 21.7507C0.0445994 21.5533 0 21.3416 0 21.1279C0 20.9142 0.0445994 20.7025 0.131247 20.5051C0.217894 20.3077 0.344885 20.1284 0.504946 19.9774L21.1299 0.477405C21.2896 0.326075 21.4793 0.20601 21.6881 0.124089C21.8969 0.0421683 22.1207 0 22.3468 0C22.5729 0 22.7967 0.0421683 23.0056 0.124089C23.2144 0.20601 23.404 0.326075 23.5637 0.477405Z" fill="white"/>
</svg>
