<svg width="25" height="43" viewBox="0 0 25 43" fill="none" xmlns="http://www.w3.org/2000/svg">
<path fill-rule="evenodd" clip-rule="evenodd" d="M0.504946 0.477405C0.664603 0.326075 0.854269 0.20601 1.06308 0.124089C1.27189 0.0421683 1.49575 0 1.72182 0C1.9479 0 2.17175 0.0421683 2.38056 0.124089C2.58937 0.20601 2.77904 0.326075 2.9387 0.477405L23.5637 19.9774C23.7238 20.1284 23.8507 20.3077 23.9374 20.5051C24.024 20.7025 24.0686 20.9142 24.0686 21.1279C24.0686 21.3416 24.024 21.5533 23.9374 21.7507C23.8507 21.9481 23.7238 22.1275 23.5637 22.2784L2.9387 41.7784C2.61596 42.0835 2.17824 42.255 1.72182 42.255C1.26541 42.255 0.827682 42.0835 0.504946 41.7784C0.182211 41.4733 0.000899881 41.0594 0.000899881 40.6279C0.000899881 40.1964 0.182211 39.7825 0.504946 39.4774L19.9165 21.1279L0.504946 2.77841C0.344885 2.62746 0.217894 2.44814 0.131247 2.25071C0.0445994 2.05329 0 1.84165 0 1.6279C0 1.41416 0.0445994 1.20252 0.131247 1.0051C0.217894 0.807674 0.344885 0.628353 0.504946 0.477405Z" fill="white"/>
</svg>
