<svg width="81" height="81" viewBox="0 0 81 81" fill="none" xmlns="http://www.w3.org/2000/svg">
<path d="M40.0934 75.1751C30.7891 75.1751 21.866 71.479 15.2869 64.8999C8.70777 58.3208 5.01167 49.3976 5.01167 40.0934C5.01167 30.7891 8.70777 21.866 15.2869 15.2869C21.866 8.70777 30.7891 5.01167 40.0934 5.01167C49.3976 5.01167 58.3208 8.70777 64.8999 15.2869C71.479 21.866 75.1751 30.7891 75.1751 40.0934C75.1751 49.3976 71.479 58.3208 64.8999 64.8999C58.3208 71.479 49.3976 75.1751 40.0934 75.1751ZM40.0934 80.1867C50.7268 80.1867 60.9247 75.9626 68.4437 68.4437C75.9626 60.9247 80.1867 50.7268 80.1867 40.0934C80.1867 29.4599 75.9626 19.262 68.4437 11.7431C60.9247 4.22411 50.7268 0 40.0934 0C29.4599 0 19.262 4.22411 11.7431 11.7431C4.22411 19.262 0 29.4599 0 40.0934C0 50.7268 4.22411 60.9247 11.7431 68.4437C19.262 75.9626 29.4599 80.1867 40.0934 80.1867Z" fill="#FFA800"/>
<path d="M54.9781 24.9079C54.9424 24.9425 54.9089 24.9793 54.8778 25.0182L37.4723 47.1948L26.9829 36.7004C26.2703 36.0364 25.3279 35.675 24.3541 35.6921C23.3804 35.7093 22.4513 36.1038 21.7626 36.7925C21.0739 37.4811 20.6794 38.4102 20.6623 39.384C20.6451 40.3578 21.0065 41.3002 21.6705 42.0127L34.9314 55.2786C35.2886 55.6352 35.714 55.9162 36.1822 56.1048C36.6504 56.2934 37.1518 56.3858 37.6564 56.3765C38.1611 56.3671 38.6587 56.2562 39.1196 56.0504C39.5805 55.8445 39.9952 55.548 40.339 55.1784L60.3456 30.1701C61.0268 29.4551 61.3993 28.5007 61.3824 27.5133C61.3656 26.5259 60.9608 25.5847 60.2556 24.8933C59.5504 24.202 58.6014 23.8159 57.6139 23.8186C56.6263 23.8213 55.6794 24.2126 54.9781 24.9079Z" fill="#FFA800"/>
</svg>
