<svg width="59" height="50" viewBox="0 0 59 50" fill="none" xmlns="http://www.w3.org/2000/svg">
<path d="M28.0362 1.00083L28.0362 1.00085L1.69121 21.6874L1.29796 21.9962L1.60674 22.3895L3.88558 25.2917L4.19436 25.6849L4.58762 25.3762L7 23.4819L7 45.3076L7 45.3086C7.0022 46.4184 7.44095 47.4829 8.2213 48.2687C9.00176 49.0546 10.0604 49.4978 11.1657 49.5H11.1667H47.8333H47.8343C48.9396 49.4978 49.9982 49.0546 50.7787 48.2687C51.5591 47.4829 51.9978 46.4184 52 45.3086V45.3076V23.4986L54.4124 25.3928L54.8056 25.7016L55.1144 25.3083L57.3933 22.4061L57.7021 22.0127L57.3087 21.704L30.9308 1.00083C30.9307 1.00082 30.9307 1.0008 30.9307 1.00079C30.5176 0.676469 30.0083 0.5 29.4835 0.5C28.9587 0.5 28.4494 0.676485 28.0362 1.00083ZM47.3333 19.8369V44.8076H37.3333V30.5381V30.5376C37.3322 29.4273 36.8938 28.3621 36.1131 27.5759C35.3323 26.7897 34.2729 26.3468 33.1672 26.3457H33.1667H25.8333H25.8328C24.7271 26.3468 23.6677 26.7897 22.8869 27.5759C22.1062 28.3621 21.6678 29.4273 21.6667 30.5376V30.5381V44.8076H11.6667V19.8187L29.4998 5.82921L47.3333 19.8369ZM26.3333 44.8076V31.0381H32.6667V44.8076H26.3333Z" fill="white" stroke="white"/>
</svg>
