<svg width="39" height="55" viewBox="0 0 39 55" fill="none" xmlns="http://www.w3.org/2000/svg">
<path d="M33.8918 12.8566C30.6394 7.74761 26.0221 3.50168 20.4851 0.528245L19.5 0L18.5149 0.528245C12.8837 3.54134 8.20775 7.87635 4.95752 13.0971C1.70728 18.3179 -0.00256771 24.2402 2.89423e-06 30.2682C2.89423e-06 30.6609 0.00738018 31.0598 0.0217654 31.4537C0.217503 36.795 2.42066 41.2894 6.39308 44.451C9.43291 46.8706 13.3322 48.3476 17.5333 48.6999V55H21.4677V25.8177H17.5328V45.0288C10.8856 44.3148 4.26971 39.9612 3.95361 31.3297C3.94058 30.9769 3.93394 30.6198 3.93394 30.2682C3.94564 25.0632 5.3794 19.9458 8.1014 15.3936C10.8234 10.8413 14.7449 7.00258 19.5 4.23565C24.255 7.00264 28.1764 10.8414 30.8983 15.3936C33.6202 19.9459 35.0539 25.0633 35.0656 30.2682C35.0656 30.6198 35.0589 30.9769 35.0459 31.3298C34.7931 38.2348 30.5082 42.4017 25.4011 44.1582V48.0188C28.0513 47.3224 30.5088 46.1055 32.6069 44.4508C36.5793 41.2892 38.7825 36.7948 38.9782 31.4536C38.9926 31.0597 39 30.6608 39 30.2681C39.0035 24.1456 37.2398 18.1339 33.8918 12.8566V12.8566Z" fill="white"/>
</svg>
