<svg width="48" height="48" viewBox="0 0 48 48" fill="none" xmlns="http://www.w3.org/2000/svg">
<path d="M5.49153 39L9.45763 34.8214L12.5085 38.0357L8.54237 42.2143L5.49153 39ZM21.661 47.8929V41.1429H26.0339V47.8929H21.661ZM6.50847 20.5714V25.1786H0V20.5714H6.50847ZM30.4068 11.0357C32.3729 12.25 33.9492 13.8929 35.1356 15.9643C36.322 18.0357 36.9153 20.3214 36.9153 22.8214C36.9153 26.6071 35.6441 29.8393 33.1017 32.5179C30.5593 35.1964 27.4915 36.5357 23.8983 36.5357C20.3051 36.5357 17.2373 35.1964 14.6949 32.5179C12.1525 29.8393 10.8814 26.6071 10.8814 22.8214C10.8814 20.3214 11.4576 18.0357 12.6102 15.9643C13.7627 13.8929 15.3559 12.25 17.3898 11.0357V0H30.4068V11.0357ZM41.1864 20.5714H47.6949V25.1786H41.1864V20.5714ZM35.1864 38.0357L38.2373 34.9286L42.2034 39L39.1525 42.2143L35.1864 38.0357Z" fill="white"/>
</svg>
