<svg width="38" height="38" viewBox="0 0 38 38" fill="none" xmlns="http://www.w3.org/2000/svg">
<path d="M24.6729 18.5047C24.6729 16.802 24.0705 15.3483 22.8658 14.1435C21.6611 12.9388 20.2074 12.3364 18.5047 12.3364C16.802 12.3364 15.3483 12.9388 14.1435 14.1435C12.9388 15.3483 12.3364 16.802 12.3364 18.5047C12.3364 20.2074 12.9388 21.6611 14.1435 22.8658C15.3483 24.0705 16.802 24.6729 18.5047 24.6729C20.2074 24.6729 21.6611 24.0705 22.8658 22.8658C24.0705 21.6611 24.6729 20.2074 24.6729 18.5047ZM27.998 18.5047C27.998 21.139 27.0743 23.3798 25.2271 25.2271C23.3798 27.0743 21.139 27.998 18.5047 27.998C15.8703 27.998 13.6295 27.0743 11.7823 25.2271C9.93502 23.3798 9.01139 21.139 9.01139 18.5047C9.01139 15.8703 9.93502 13.6295 11.7823 11.7823C13.6295 9.93502 15.8703 9.01139 18.5047 9.01139C21.139 9.01139 23.3798 9.93502 25.2271 11.7823C27.0743 13.6295 27.998 15.8703 27.998 18.5047ZM30.6002 8.62588C30.6002 9.23627 30.3833 9.75832 29.9496 10.192C29.5159 10.6257 28.9939 10.8426 28.3835 10.8426C27.7731 10.8426 27.251 10.6257 26.8173 10.192C26.3836 9.75832 26.1668 9.23627 26.1668 8.62588C26.1668 8.01548 26.3836 7.49343 26.8173 7.05972C27.251 6.62602 27.7731 6.40917 28.3835 6.40917C28.9939 6.40917 29.5159 6.62602 29.9496 7.05972C30.3833 7.49343 30.6002 8.01548 30.6002 8.62588ZM18.5047 3.32506C18.3922 3.32506 17.7778 3.32104 16.6614 3.31301C15.545 3.30498 14.6977 3.30498 14.1194 3.31301C13.5412 3.32104 12.7661 3.34514 11.7943 3.38529C10.8225 3.42545 9.99525 3.50577 9.31257 3.62624C8.62989 3.74671 8.05564 3.8953 7.58981 4.07199C6.78665 4.39325 6.07988 4.85908 5.46948 5.46948C4.85908 6.07988 4.39325 6.78665 4.07199 7.58981C3.8953 8.05564 3.74671 8.62989 3.62624 9.31257C3.50577 9.99525 3.42545 10.8225 3.38529 11.7943C3.34514 12.7661 3.32104 13.5412 3.31301 14.1194C3.30498 14.6977 3.30498 15.545 3.31301 16.6614C3.32104 17.7778 3.32506 18.3922 3.32506 18.5047C3.32506 18.6171 3.32104 19.2315 3.31301 20.3479C3.30498 21.4643 3.30498 22.3116 3.31301 22.8899C3.32104 23.4682 3.34514 24.2432 3.38529 25.215C3.42545 26.1868 3.50577 27.0141 3.62624 27.6968C3.74671 28.3795 3.8953 28.9537 4.07199 29.4195C4.39325 30.2227 4.85908 30.9295 5.46948 31.5399C6.07988 32.1503 6.78665 32.6161 7.58981 32.9374C8.05564 33.114 8.62989 33.2626 9.31257 33.3831C9.99525 33.5036 10.8225 33.5839 11.7943 33.6241C12.7661 33.6642 13.5412 33.6883 14.1194 33.6963C14.6977 33.7044 15.545 33.7044 16.6614 33.6963C17.7778 33.6883 18.3922 33.6843 18.5047 33.6843C18.6171 33.6843 19.2315 33.6883 20.3479 33.6963C21.4643 33.7044 22.3116 33.7044 22.8899 33.6963C23.4682 33.6883 24.2432 33.6642 25.215 33.6241C26.1868 33.5839 27.0141 33.5036 27.6968 33.3831C28.3795 33.2626 28.9537 33.114 29.4195 32.9374C30.2227 32.6161 30.9295 32.1503 31.5399 31.5399C32.1503 30.9295 32.6161 30.2227 32.9374 29.4195C33.114 28.9537 33.2626 28.3795 33.3831 27.6968C33.5036 27.0141 33.5839 26.1868 33.6241 25.215C33.6642 24.2432 33.6883 23.4682 33.6963 22.8899C33.7044 22.3116 33.7044 21.4643 33.6963 20.3479C33.6883 19.2315 33.6843 18.6171 33.6843 18.5047C33.6843 18.3922 33.6883 17.7778 33.6963 16.6614C33.7044 15.545 33.7044 14.6977 33.6963 14.1194C33.6883 13.5412 33.6642 12.7661 33.6241 11.7943C33.5839 10.8225 33.5036 9.99525 33.3831 9.31257C33.2626 8.62989 33.114 8.05564 32.9374 7.58981C32.6161 6.78665 32.1503 6.07988 31.5399 5.46948C30.9295 4.85908 30.2227 4.39325 29.4195 4.07199C28.9537 3.8953 28.3795 3.74671 27.6968 3.62624C27.0141 3.50577 26.1868 3.42545 25.215 3.38529C24.2432 3.34514 23.4682 3.32104 22.8899 3.31301C22.3116 3.30498 21.4643 3.30498 20.3479 3.31301C19.2315 3.32104 18.6171 3.32506 18.5047 3.32506ZM37.0093 18.5047C37.0093 22.1831 36.9692 24.7291 36.8889 26.1427C36.7282 29.4838 35.7323 32.0699 33.9011 33.9011C32.0699 35.7323 29.4838 36.7282 26.1427 36.8889C24.7291 36.9692 22.1831 37.0093 18.5047 37.0093C14.8262 37.0093 12.2802 36.9692 10.8667 36.8889C7.52555 36.7282 4.9394 35.7323 3.10821 33.9011C1.27702 32.0699 0.281104 29.4838 0.120473 26.1427C0.0401577 24.7291 0 22.1831 0 18.5047C0 14.8262 0.0401577 12.2802 0.120473 10.8667C0.281104 7.52555 1.27702 4.9394 3.10821 3.10821C4.9394 1.27702 7.52555 0.281104 10.8667 0.120473C12.2802 0.0401577 14.8262 0 18.5047 0C22.1831 0 24.7291 0.0401577 26.1427 0.120473C29.4838 0.281104 32.0699 1.27702 33.9011 3.10821C35.7323 4.9394 36.7282 7.52555 36.8889 10.8667C36.9692 12.2802 37.0093 14.8262 37.0093 18.5047Z" fill="white"/>
</svg>
