<svg width="38" height="38" viewBox="0 0 38 38" fill="none" xmlns="http://www.w3.org/2000/svg">
<path d="M25.4673 19.0701C25.4673 17.3674 24.8649 15.9137 23.6602 14.709C22.4554 13.5042 21.0017 12.9019 19.299 12.9019C17.5964 12.9019 16.1426 13.5042 14.9379 14.709C13.7332 15.9137 13.1308 17.3674 13.1308 19.0701C13.1308 20.7728 13.7332 22.2265 14.9379 23.4312C16.1426 24.636 17.5964 25.2383 19.299 25.2383C21.0017 25.2383 22.4554 24.636 23.6602 23.4312C24.8649 22.2265 25.4673 20.7728 25.4673 19.0701ZM28.7923 19.0701C28.7923 21.7044 27.8687 23.9452 26.0214 25.7925C24.1742 27.6398 21.9334 28.5634 19.299 28.5634C16.6647 28.5634 14.4239 27.6398 12.5766 25.7925C10.7294 23.9452 9.80576 21.7044 9.80576 19.0701C9.80576 16.4358 10.7294 14.195 12.5766 12.3477C14.4239 10.5004 16.6647 9.57682 19.299 9.57682C21.9334 9.57682 24.1742 10.5004 26.0214 12.3477C27.8687 14.195 28.7923 16.4358 28.7923 19.0701ZM31.3945 9.19131C31.3945 9.8017 31.1777 10.3238 30.744 10.7575C30.3103 11.1912 29.7882 11.408 29.1778 11.408C28.5674 11.408 28.0454 11.1912 27.6117 10.7575C27.178 10.3238 26.9611 9.8017 26.9611 9.19131C26.9611 8.58091 27.178 8.05886 27.6117 7.62515C28.0454 7.19145 28.5674 6.9746 29.1778 6.9746C29.7882 6.9746 30.3103 7.19145 30.744 7.62515C31.1777 8.05886 31.3945 8.58091 31.3945 9.19131ZM19.299 3.89049C19.1866 3.89049 18.5722 3.88647 17.4558 3.87844C16.3394 3.87041 15.4921 3.87041 14.9138 3.87844C14.3356 3.88647 13.5605 3.91057 12.5887 3.95072C11.6169 3.99088 10.7896 4.0712 10.1069 4.19167C9.42426 4.31214 8.85001 4.46073 8.38418 4.63742C7.58103 4.95868 6.87425 5.42451 6.26385 6.03491C5.65345 6.64531 5.18763 7.35208 4.86636 8.15524C4.68967 8.62107 4.54109 9.19532 4.42061 9.878C4.30014 10.5607 4.21982 11.3879 4.17967 12.3597C4.13951 13.3316 4.11542 14.1066 4.10738 14.6849C4.09935 15.2632 4.09935 16.1105 4.10738 17.2269C4.11542 18.3432 4.11943 18.9577 4.11943 19.0701C4.11943 19.1825 4.11542 19.797 4.10738 20.9133C4.09935 22.0297 4.09935 22.8771 4.10738 23.4553C4.11542 24.0336 4.13951 24.8086 4.17967 25.7805C4.21982 26.7523 4.30014 27.5795 4.42061 28.2622C4.54109 28.9449 4.68967 29.5191 4.86636 29.985C5.18763 30.7881 5.65345 31.4949 6.26385 32.1053C6.87425 32.7157 7.58103 33.1815 8.38418 33.5028C8.85001 33.6795 9.42426 33.8281 10.1069 33.9485C10.7896 34.069 11.6169 34.1493 12.5887 34.1895C13.5605 34.2296 14.3356 34.2537 14.9138 34.2618C15.4921 34.2698 16.3394 34.2698 17.4558 34.2618C18.5722 34.2537 19.1866 34.2497 19.299 34.2497C19.4115 34.2497 20.0259 34.2537 21.1423 34.2618C22.2587 34.2698 23.106 34.2698 23.6843 34.2618C24.2625 34.2537 25.0376 34.2296 26.0094 34.1895C26.9812 34.1493 27.8085 34.069 28.4911 33.9485C29.1738 33.8281 29.7481 33.6795 30.2139 33.5028C31.0171 33.1815 31.7238 32.7157 32.3342 32.1053C32.9446 31.4949 33.4105 30.7881 33.7317 29.985C33.9084 29.5191 34.057 28.9449 34.1775 28.2622C34.2979 27.5795 34.3783 26.7523 34.4184 25.7805C34.4586 24.8086 34.4827 24.0336 34.4907 23.4553C34.4987 22.8771 34.4987 22.0297 34.4907 20.9133C34.4827 19.797 34.4787 19.1825 34.4787 19.0701C34.4787 18.9577 34.4827 18.3432 34.4907 17.2269C34.4987 16.1105 34.4987 15.2632 34.4907 14.6849C34.4827 14.1066 34.4586 13.3316 34.4184 12.3597C34.3783 11.3879 34.2979 10.5607 34.1775 9.878C34.057 9.19532 33.9084 8.62107 33.7317 8.15524C33.4105 7.35208 32.9446 6.64531 32.3342 6.03491C31.7238 5.42451 31.0171 4.95868 30.2139 4.63742C29.7481 4.46073 29.1738 4.31214 28.4911 4.19167C27.8085 4.0712 26.9812 3.99088 26.0094 3.95072C25.0376 3.91057 24.2625 3.88647 23.6843 3.87844C23.106 3.87041 22.2587 3.87041 21.1423 3.87844C20.0259 3.88647 19.4115 3.89049 19.299 3.89049ZM37.8037 19.0701C37.8037 22.7485 37.7636 25.2945 37.6832 26.7081C37.5226 30.0492 36.5267 32.6354 34.6955 34.4666C32.8643 36.2978 30.2782 37.2937 26.937 37.4543C25.5235 37.5346 22.9775 37.5748 19.299 37.5748C15.6206 37.5748 13.0746 37.5346 11.661 37.4543C8.31993 37.2937 5.73377 36.2978 3.90258 34.4666C2.07139 32.6354 1.07548 30.0492 0.914846 26.7081C0.83453 25.2945 0.794373 22.7485 0.794373 19.0701C0.794373 15.3917 0.83453 12.8457 0.914846 11.4321C1.07548 8.09098 2.07139 5.50483 3.90258 3.67364C5.73377 1.84244 8.31993 0.846534 11.661 0.685903C13.0746 0.605587 15.6206 0.56543 19.299 0.56543C22.9775 0.56543 25.5235 0.605587 26.937 0.685903C30.2782 0.846534 32.8643 1.84244 34.6955 3.67364C36.5267 5.50483 37.5226 8.09098 37.6832 11.4321C37.7636 12.8457 37.8037 15.3917 37.8037 19.0701Z" fill="#191818"/>
</svg>
