<svg width="51" height="39" viewBox="0 0 51 39" fill="none" xmlns="http://www.w3.org/2000/svg">
<path d="M45.0699 0C46.4784 0 47.6716 0.469681 48.6497 1.40904C49.6278 2.3484 50.1168 3.49443 50.1168 4.84711V33.7043C50.1168 35.057 49.6278 36.203 48.6497 37.1424C47.6716 38.0817 46.4784 38.5514 45.0699 38.5514H5.04689C3.63846 38.5514 2.4452 38.0817 1.46712 37.1424C0.48904 36.203 0 35.057 0 33.7043V4.84711C0 3.49443 0.48904 2.3484 1.46712 1.40904C2.4452 0.469681 3.63846 0 5.04689 0H45.0699ZM45.0699 9.69421V4.84711L24.9997 16.9085L5.04689 4.84711V9.69421L24.9997 21.6429L45.0699 9.69421Z" fill="#FFA800"/>
</svg>
