<svg width="26" height="38" viewBox="0 0 26 38" fill="none" xmlns="http://www.w3.org/2000/svg">
<path d="M12.7546 18.8393C9.79342 18.8393 7.26542 17.9237 5.17058 16.0925C3.07573 14.2613 2.0283 12.0584 2.0283 9.48367C2.0283 6.89522 3.07573 4.6854 5.17058 2.85421C7.26542 1.02302 9.79342 0.107422 12.7546 0.107422C15.7157 0.107422 18.2437 1.02302 20.3385 2.85421C22.4334 4.6854 23.4808 6.89522 23.4808 9.48367C23.4808 12.0584 22.4334 14.2613 20.3385 16.0925C18.2437 17.9237 15.7157 18.8393 12.7546 18.8393ZM12.7546 4.8575C11.3055 4.8575 10.0651 5.30842 9.03344 6.21025C8.00177 7.11207 7.48593 8.20322 7.48593 9.48367C7.48593 10.7504 8.00177 11.8346 9.03344 12.7364C10.0651 13.6383 11.3055 14.0892 12.7546 14.0892C14.2036 14.0892 15.444 13.6383 16.4757 12.7364C17.5073 11.8346 18.0232 10.7504 18.0232 9.48367C18.0232 8.20322 17.5073 7.11207 16.4757 6.21025C15.444 5.30842 14.2036 4.8575 12.7546 4.8575ZM25.111 19.9752C25.3158 20.3469 25.4339 20.6877 25.4654 20.9975C25.4969 21.3072 25.4615 21.5861 25.3591 21.8339C25.2567 22.0817 25.048 22.3468 24.733 22.629C24.418 22.9113 24.0833 23.166 23.7289 23.3932C23.3745 23.6203 22.8902 23.906 22.2759 24.2502C20.4645 25.2553 17.9838 25.9024 14.8337 26.1916L16.5584 27.6786L22.8665 33.1928C23.3391 33.6196 23.5753 34.129 23.5753 34.7211C23.5753 35.3131 23.3391 35.8157 22.8665 36.2287L22.583 36.4972C22.0947 36.9102 21.512 37.1168 20.8347 37.1168C20.1574 37.1168 19.5746 36.9102 19.0864 36.4972C18.0311 35.5609 15.9283 33.716 12.7782 30.9623L6.47001 36.4972C5.98174 36.9102 5.39896 37.1168 4.72168 37.1168C4.0444 37.1168 3.4695 36.9102 2.99697 36.4972L2.71346 36.2287C2.22519 35.8157 1.98105 35.3131 1.98105 34.7211C1.98105 34.129 2.22519 33.6196 2.71346 33.1928L9.02163 27.6786L10.7227 26.1916C7.52531 25.9024 5.02882 25.2553 3.23324 24.2502C2.61896 23.906 2.13462 23.6203 1.78023 23.3932C1.42584 23.166 1.09113 22.9113 0.77612 22.629C0.461105 22.3468 0.252408 22.0817 0.150028 21.8339C0.0476486 21.5861 0.0122095 21.3072 0.0437109 20.9975C0.0752124 20.6877 0.193343 20.3469 0.398103 19.9752C0.55561 19.6998 0.77612 19.4588 1.05963 19.2523C1.34315 19.0458 1.67391 18.8943 2.05193 18.798C2.42995 18.7016 2.87097 18.7154 3.37499 18.8393C3.87902 18.9632 4.39091 19.2041 4.91069 19.5621C4.98944 19.6172 5.10757 19.6929 5.26508 19.7893C5.42259 19.8857 5.76123 20.0543 6.281 20.2953C6.80078 20.5362 7.34418 20.7462 7.9112 20.9252C8.47823 21.1042 9.20276 21.2694 10.0848 21.4208C10.9668 21.5723 11.8568 21.648 12.7546 21.648C14.1879 21.648 15.5582 21.4725 16.8655 21.1214C18.1728 20.7703 19.1179 20.4226 19.7006 20.0784L20.5984 19.5621C21.1182 19.2041 21.6301 18.9632 22.1341 18.8393C22.6381 18.7154 23.0792 18.7016 23.4572 18.798C23.8352 18.8943 24.166 19.0458 24.4495 19.2523C24.733 19.4588 24.9535 19.6998 25.111 19.9752Z" fill="#191818"/>
</svg>
