<svg width="26" height="38" viewBox="0 0 26 38" fill="none" xmlns="http://www.w3.org/2000/svg">
<path d="M12.722 18.7318C9.76082 18.7318 7.23283 17.8163 5.13798 15.9851C3.04313 14.1539 1.99571 11.9509 1.99571 9.37625C1.99571 6.7878 3.04313 4.57798 5.13798 2.74679C7.23283 0.915596 9.76082 0 12.722 0C15.6831 0 18.2111 0.915596 20.3059 2.74679C22.4008 4.57798 23.4482 6.7878 23.4482 9.37625C23.4482 11.9509 22.4008 14.1539 20.3059 15.9851C18.2111 17.8163 15.6831 18.7318 12.722 18.7318ZM12.722 4.75008C11.2729 4.75008 10.0325 5.201 9.00085 6.10282C7.96918 7.00465 7.45334 8.09579 7.45334 9.37625C7.45334 10.6429 7.96918 11.7272 9.00085 12.629C10.0325 13.5309 11.2729 13.9818 12.722 13.9818C14.171 13.9818 15.4114 13.5309 16.4431 12.629C17.4747 11.7272 17.9906 10.6429 17.9906 9.37625C17.9906 8.09579 17.4747 7.00465 16.4431 6.10282C15.4114 5.201 14.171 4.75008 12.722 4.75008ZM25.0784 19.8677C25.2832 20.2395 25.4013 20.5803 25.4328 20.89C25.4643 21.1998 25.4289 21.4786 25.3265 21.7265C25.2241 21.9743 25.0154 22.2393 24.7004 22.5216C24.3854 22.8038 24.0507 23.0586 23.6963 23.2857C23.3419 23.5129 22.8576 23.7986 22.2433 24.1428C20.4319 25.1479 17.9512 25.795 14.8011 26.0842L16.5258 27.5711L22.8339 33.0854C23.3065 33.5122 23.5427 34.0216 23.5427 34.6136C23.5427 35.2057 23.3065 35.7082 22.8339 36.1213L22.5504 36.3898C22.0621 36.8028 21.4794 37.0093 20.8021 37.0093C20.1248 37.0093 19.542 36.8028 19.0538 36.3898C17.9985 35.4535 15.8957 33.6086 12.7456 30.8549L6.43742 36.3898C5.94915 36.8028 5.36637 37.0093 4.68909 37.0093C4.01181 37.0093 3.4369 36.8028 2.96438 36.3898L2.68087 36.1213C2.1926 35.7082 1.94846 35.2057 1.94846 34.6136C1.94846 34.0216 2.1926 33.5122 2.68087 33.0854L8.98904 27.5711L10.6901 26.0842C7.49272 25.795 4.99623 25.1479 3.20064 24.1428C2.58636 23.7986 2.10203 23.5129 1.74764 23.2857C1.39325 23.0586 1.05854 22.8038 0.743527 22.5216C0.428513 22.2393 0.219815 21.9743 0.117436 21.7265C0.0150558 21.4786 -0.0203833 21.1998 0.0111182 20.89C0.0426196 20.5803 0.16075 20.2395 0.36551 19.8677C0.523017 19.5924 0.743527 19.3514 1.02704 19.1449C1.31055 18.9384 1.64132 18.7869 2.01934 18.6905C2.39735 18.5942 2.83838 18.6079 3.3424 18.7318C3.84642 18.8558 4.35832 19.0967 4.8781 19.4547C4.95685 19.5098 5.07498 19.5855 5.23249 19.6819C5.38999 19.7782 5.72864 19.9469 6.24841 20.1879C6.76818 20.4288 7.31158 20.6388 7.87861 20.8178C8.44564 20.9967 9.17017 21.162 10.0522 21.3134C10.9343 21.4649 11.8242 21.5406 12.722 21.5406C14.1553 21.5406 15.5256 21.365 16.8329 21.014C18.1402 20.6629 19.0853 20.3152 19.668 19.971L20.5658 19.4547C21.0856 19.0967 21.5975 18.8558 22.1015 18.7318C22.6055 18.6079 23.0466 18.5942 23.4246 18.6905C23.8026 18.7869 24.1334 18.9384 24.4169 19.1449C24.7004 19.3514 24.9209 19.5924 25.0784 19.8677Z" fill="white"/>
</svg>
