<svg width="51" height="49" viewBox="0 0 51 49" fill="none" xmlns="http://www.w3.org/2000/svg">
<path d="M32.1387 26.7349C32.4215 26.7349 33.4819 27.1952 35.32 28.1156C37.158 29.0361 38.1314 29.5904 38.2402 29.7787C38.2837 29.8833 38.3054 30.0402 38.3054 30.2494C38.3054 30.9397 38.1205 31.7347 37.7508 32.6342C37.4027 33.4501 36.6305 34.1352 35.4342 34.6895C34.2378 35.2439 33.1284 35.5211 32.1061 35.5211C30.8662 35.5211 28.7998 34.8726 25.9067 33.5756C23.775 32.6342 21.9261 31.4 20.36 29.8729C18.7938 28.3457 17.1842 26.4107 15.531 24.0677C13.9648 21.8294 13.1926 19.8002 13.2144 17.9802V17.7292C13.2797 15.8255 14.0845 14.1729 15.6289 12.7713C16.1509 12.311 16.7165 12.0809 17.3255 12.0809C17.4561 12.0809 17.6518 12.0966 17.9128 12.128C18.1739 12.1594 18.3805 12.1751 18.5328 12.1751C18.9461 12.1751 19.2343 12.2431 19.3974 12.379C19.5606 12.515 19.7291 12.8027 19.9032 13.242C20.0772 13.6603 20.4361 14.5808 20.9799 16.0033C21.5237 17.4258 21.7956 18.2103 21.7956 18.3567C21.7956 18.796 21.4204 19.3975 20.6699 20.161C19.9195 20.9246 19.5443 21.411 19.5443 21.6202C19.5443 21.7666 19.5986 21.9235 19.7074 22.0908C20.447 23.618 21.5563 25.0509 23.0355 26.3898C24.2536 27.4985 25.8959 28.5549 27.9623 29.5591C28.2233 29.7055 28.4626 29.7787 28.6801 29.7787C29.0064 29.7787 29.5937 29.2714 30.4421 28.2568C31.2904 27.2422 31.8559 26.7349 32.1387 26.7349ZM25.5152 43.3658C28.2777 43.3658 30.926 42.8429 33.4602 41.7969C35.9943 40.7509 38.1749 39.3493 40.0021 37.5921C41.8293 35.8349 43.2867 33.7377 44.3743 31.3006C45.4619 28.8635 46.0057 26.3166 46.0057 23.6598C46.0057 21.003 45.4619 18.4561 44.3743 16.019C43.2867 13.5819 41.8293 11.4847 40.0021 9.7275C38.1749 7.97028 35.9943 6.56868 33.4602 5.52271C30.926 4.47674 28.2777 3.95376 25.5152 3.95376C22.7527 3.95376 20.1044 4.47674 17.5703 5.52271C15.0361 6.56868 12.8555 7.97028 11.0283 9.7275C9.20113 11.4847 7.74374 13.5819 6.65614 16.019C5.56854 18.4561 5.02473 21.003 5.02473 23.6598C5.02473 27.9064 6.32986 31.7556 8.94011 35.2073L6.36249 42.5186L14.2585 40.1024C17.6953 42.278 21.4476 43.3658 25.5152 43.3658ZM25.5152 0C28.8433 0 32.0245 0.627581 35.0589 1.88274C38.0933 3.1379 40.709 4.82191 42.906 6.93477C45.103 9.04763 46.854 11.5632 48.1591 14.4814C49.4643 17.3997 50.1168 20.4591 50.1168 23.6598C50.1168 26.8605 49.4643 29.9199 48.1591 32.8382C46.854 35.7564 45.103 38.272 42.906 40.3848C40.709 42.4977 38.0933 44.1817 35.0589 45.4369C32.0245 46.692 28.8433 47.3196 25.5152 47.3196C21.2735 47.3196 17.3038 46.3364 13.6059 44.37L0 48.5748L4.43743 35.8663C2.0882 32.1426 0.913588 28.0738 0.913588 23.6598C0.913588 20.4591 1.56615 17.3997 2.87128 14.4814C4.1764 11.5632 5.92744 9.04763 8.12441 6.93477C10.3214 4.82191 12.9371 3.1379 15.9715 1.88274C19.0059 0.627581 22.1871 0 25.5152 0Z" fill="#FFA800"/>
</svg>
