<svg width="31" height="36" viewBox="0 0 31 36" fill="none" xmlns="http://www.w3.org/2000/svg">
<path d="M16.1978 0.0295557C18.1354 0 20.0583 0.0147779 21.9812 0C22.0995 2.26101 22.913 4.56636 24.5696 6.16236C26.2262 7.80271 28.5633 8.55638 30.8411 8.8076V14.7631C28.7112 14.6892 26.5664 14.2458 24.6288 13.3296C23.7857 12.9454 23.0018 12.4577 22.2326 11.9553C22.2178 16.2704 22.2474 20.5855 22.203 24.8859C22.0847 26.9548 21.4043 29.0089 20.2062 30.7084C18.2685 33.5457 14.9109 35.393 11.4646 35.4521C9.34941 35.5703 7.23426 34.9939 5.42973 33.9299C2.44189 32.1714 0.341533 28.9498 0.0309162 25.4918C0.00133372 24.7529 -0.0134575 24.014 0.016125 23.2899C0.282368 20.4821 1.67275 17.7925 3.83227 15.9601C6.28762 13.8321 9.71919 12.8124 12.9289 13.4183C12.9585 15.6054 12.8697 17.7925 12.8697 19.9797C11.4054 19.5068 9.68961 19.6398 8.40277 20.5264C7.47092 21.1323 6.76094 22.0633 6.39116 23.1126C6.08054 23.8662 6.16929 24.6938 6.18408 25.4918C6.53907 27.9154 8.87609 29.9547 11.361 29.733C13.0176 29.7183 14.6003 28.7577 15.4582 27.3538C15.7392 26.8661 16.0499 26.3637 16.0646 25.7874C16.2126 23.1421 16.1534 20.5117 16.1682 17.8664C16.183 11.9109 16.1534 5.97025 16.1978 0.0295557Z" fill="white"/>
</svg>
