<svg width="32" height="36" viewBox="0 0 32 36" fill="none" xmlns="http://www.w3.org/2000/svg">
<path d="M16.4782 0.365981C18.4158 0.336426 20.3387 0.351204 22.2615 0.336426C22.3799 2.59744 23.1934 4.90278 24.85 6.49879C26.5066 8.13913 28.8437 8.8928 31.1215 9.14402V15.0995C28.9916 15.0256 26.8468 14.5823 24.9092 13.666C24.0661 13.2818 23.2821 12.7942 22.513 12.2917C22.4982 16.6068 22.5278 20.922 22.4834 25.2223C22.3651 27.2912 21.6847 29.3453 20.4866 31.0448C18.5489 33.8821 15.1913 35.7294 11.745 35.7885C9.62981 35.9067 7.51466 35.3304 5.71012 34.2664C2.72229 32.5078 0.621928 29.2862 0.311312 25.8282C0.281729 25.0893 0.266938 24.3504 0.296521 23.6263C0.562763 20.8185 1.95314 18.129 4.11267 16.2965C6.56802 14.1685 9.99959 13.1488 13.2093 13.7547C13.2389 15.9418 13.1501 18.129 13.1501 20.3161C11.6858 19.8432 9.97001 19.9762 8.68317 20.8629C7.75132 21.4688 7.04134 22.3998 6.67156 23.449C6.36094 24.2027 6.44969 25.0302 6.46448 25.8282C6.81947 28.2518 9.15649 30.2911 11.6414 30.0695C13.298 30.0547 14.8807 29.0941 15.7386 27.6902C16.0196 27.2026 16.3303 26.7001 16.345 26.1238C16.493 23.4785 16.4338 20.8481 16.4486 18.2028C16.4634 12.2474 16.4338 6.30668 16.4782 0.365981V0.365981Z" fill="#191818"/>
</svg>
