<svg width="38" height="26" viewBox="0 0 38 26" fill="none" xmlns="http://www.w3.org/2000/svg">
<path d="M37.3126 2.28684C37.608 3.24751 36.6446 5.45404 34.4223 8.90645C34.114 9.38678 33.6965 10.0247 33.1698 10.8203C32.656 11.5858 32.3027 12.1262 32.11 12.4414C31.9173 12.7566 31.7214 13.1281 31.5223 13.5559C31.3232 13.9837 31.2461 14.299 31.2911 14.5016C31.3361 14.7042 31.4196 14.9632 31.5416 15.2784C31.6636 15.5936 31.8724 15.9163 32.1678 16.2466C32.4633 16.5768 32.8294 16.9746 33.2661 17.4399C33.3175 17.4699 33.3496 17.4999 33.3625 17.53C35.1737 19.4963 36.4005 21.155 37.0428 22.5059C37.0813 22.581 37.1231 22.6748 37.168 22.7874C37.213 22.8999 37.258 23.0988 37.3029 23.384C37.3479 23.6692 37.3447 23.9244 37.2933 24.1496C37.2419 24.3747 37.0813 24.5811 36.8116 24.7687C36.5418 24.9564 36.1629 25.0502 35.6747 25.0502L30.7419 25.1403C30.4336 25.2153 30.074 25.1778 29.6629 25.0277C29.2518 24.8776 28.9178 24.7125 28.6609 24.5323L28.2755 24.2621C27.8902 23.9469 27.4406 23.4666 26.9267 22.8211C26.4129 22.1757 25.9729 21.594 25.6068 21.0762C25.2407 20.5583 24.8489 20.123 24.4314 19.7703C24.014 19.4175 23.6511 19.3012 23.3428 19.4213C23.3042 19.4363 23.2528 19.4625 23.1886 19.5001C23.1244 19.5376 23.0152 19.6464 22.861 19.8266C22.7069 20.0067 22.5688 20.2281 22.4468 20.4908C22.3247 20.7534 22.2155 21.1437 22.1192 21.6616C22.0229 22.1794 21.9811 22.7611 21.994 23.4065C21.994 23.6317 21.9715 23.8381 21.9265 24.0257C21.8816 24.2134 21.8334 24.3522 21.782 24.4423L21.7049 24.5548C21.4737 24.84 21.1333 25.0052 20.6837 25.0502H18.4678C17.5557 25.1102 16.618 24.9864 15.6546 24.6787C14.6911 24.371 13.8465 23.9732 13.1207 23.4854C12.3949 22.9975 11.7334 22.5022 11.1361 21.9993C10.5387 21.4965 10.0859 21.0649 9.77761 20.7047L9.29589 20.1643C9.16744 20.0142 8.99081 19.789 8.76601 19.4888C8.5412 19.1886 8.08197 18.5056 7.38829 17.4399C6.69462 16.3741 6.01379 15.2409 5.34581 14.04C4.67783 12.8392 3.89103 11.2556 2.9854 9.28921C2.07977 7.32284 1.24158 5.28142 0.470837 3.16495C0.393762 2.92478 0.355225 2.72214 0.355225 2.55703C0.355225 2.39191 0.374493 2.27183 0.413031 2.19678L0.490105 2.06168C0.682792 1.77648 1.0489 1.63388 1.58842 1.63388L6.86804 1.58885C7.02219 1.61887 7.16992 1.66766 7.31122 1.7352C7.45252 1.80275 7.55529 1.86655 7.61952 1.92659L7.71586 1.99413C7.92139 2.15925 8.07554 2.39942 8.17831 2.71464C8.43523 3.46516 8.73068 4.24195 9.06467 5.04501C9.39866 5.84807 9.662 6.45974 9.85469 6.88004L10.163 7.53299C10.5355 8.43362 10.8952 9.21416 11.242 9.87462C11.5889 10.5351 11.9004 11.0492 12.1766 11.4169C12.4527 11.7847 12.7193 12.0737 12.9762 12.2838C13.2331 12.4939 13.4515 12.599 13.6313 12.599C13.8112 12.599 13.9846 12.5615 14.1516 12.4864C14.1773 12.4714 14.2094 12.4339 14.2479 12.3739C14.2865 12.3138 14.3636 12.1487 14.4792 11.8785C14.5948 11.6083 14.6815 11.2556 14.7393 10.8203C14.7971 10.385 14.8581 9.77705 14.9223 8.99651C14.9866 8.21597 14.9866 7.27781 14.9223 6.18205C14.8967 5.58163 14.8389 5.03375 14.7489 4.53841C14.659 4.04306 14.5691 3.69782 14.4792 3.50268L14.3636 3.2325C14.0424 2.72214 13.4965 2.39942 12.7257 2.26432C12.5587 2.2343 12.5908 2.05418 12.8221 1.72395C13.0276 1.43875 13.2717 1.21359 13.5543 1.04848C14.2351 0.658204 15.7702 0.478078 18.1595 0.508099C19.2128 0.52311 20.0799 0.620678 20.7608 0.800803C21.0177 0.875855 21.2328 0.977176 21.4063 1.10476C21.5797 1.23235 21.7113 1.41248 21.8013 1.64514C21.8912 1.8778 21.9586 2.11797 22.0036 2.36564C22.0486 2.61332 22.071 2.9548 22.071 3.39011C22.071 3.82541 22.0646 4.2382 22.0518 4.62847C22.0389 5.01874 22.0229 5.54786 22.0036 6.21582C21.9843 6.88379 21.9747 7.50297 21.9747 8.07337C21.9747 8.23848 21.9683 8.5537 21.9554 9.01903C21.9426 9.48435 21.9394 9.8446 21.9458 10.0998C21.9522 10.355 21.9747 10.6589 22.0132 11.0117C22.0518 11.3644 22.1256 11.6571 22.2348 11.8898C22.344 12.1224 22.4885 12.3063 22.6684 12.4414C22.7711 12.4714 22.8803 12.5015 22.9959 12.5315C23.1115 12.5615 23.2785 12.4789 23.4969 12.2838C23.7153 12.0887 23.9594 11.8297 24.2291 11.507C24.4989 11.1843 24.8329 10.6814 25.2311 9.99846C25.6293 9.31548 26.0661 8.50867 26.5414 7.57802C27.3121 6.01694 27.9994 4.32826 28.6031 2.51199C28.6545 2.36189 28.7187 2.23055 28.7958 2.11797C28.8729 2.00539 28.9435 1.92659 29.0078 1.88156L29.0848 1.81401L29.1812 1.75772L29.4317 1.69017L29.817 1.67891L35.3664 1.63388C35.8674 1.55883 36.2785 1.57759 36.5996 1.69017C36.9208 1.80275 37.1199 1.92659 37.1969 2.06168L37.3126 2.28684Z" fill="#191818"/>
</svg>
