<svg width="38" height="25" viewBox="0 0 38 25" fill="none" xmlns="http://www.w3.org/2000/svg">
<path d="M36.9573 1.78196C37.2528 2.74262 36.2894 4.94916 34.067 8.40156C33.7587 8.8819 33.3412 9.51984 32.8146 10.3154C32.3007 11.0809 31.9475 11.6213 31.7548 11.9365C31.5621 12.2517 31.3662 12.6233 31.1671 13.0511C30.968 13.4789 30.8909 13.7941 30.9359 13.9967C30.9808 14.1994 31.0643 14.4583 31.1864 14.7735C31.3084 15.0887 31.5171 15.4114 31.8126 15.7417C32.1081 16.0719 32.4742 16.4697 32.9109 16.935C32.9623 16.965 32.9944 16.995 33.0073 17.0251C34.8185 18.9914 36.0453 20.6501 36.6876 22.001C36.7261 22.0761 36.7679 22.1699 36.8128 22.2825C36.8578 22.3951 36.9027 22.5939 36.9477 22.8791C36.9927 23.1643 36.9895 23.4195 36.9381 23.6447C36.8867 23.8698 36.7261 24.0762 36.4563 24.2639C36.1866 24.4515 35.8076 24.5453 35.3195 24.5453L30.3867 24.6354C30.0784 24.7104 29.7187 24.6729 29.3077 24.5228C28.8966 24.3727 28.5626 24.2076 28.3057 24.0274L27.9203 23.7573C27.5349 23.442 27.0853 22.9617 26.5715 22.3163C26.0577 21.6708 25.6177 21.0891 25.2516 20.5713C24.8855 20.0534 24.4937 19.6181 24.0762 19.2654C23.6587 18.9126 23.2958 18.7963 22.9875 18.9164C22.949 18.9314 22.8976 18.9577 22.8334 18.9952C22.7692 19.0327 22.66 19.1415 22.5058 19.3217C22.3517 19.5018 22.2136 19.7232 22.0915 19.9859C21.9695 20.2486 21.8603 20.6388 21.764 21.1567C21.6676 21.6746 21.6259 22.2562 21.6387 22.9017C21.6387 23.1268 21.6163 23.3332 21.5713 23.5208C21.5263 23.7085 21.4782 23.8473 21.4268 23.9374L21.3497 24.05C21.1185 24.3352 20.7781 24.5003 20.3285 24.5453H18.1126C17.2005 24.6053 16.2628 24.4815 15.2993 24.1738C14.3359 23.8661 13.4913 23.4683 12.7655 22.9805C12.0397 22.4926 11.3782 21.9973 10.7808 21.4944C10.1835 20.9916 9.73069 20.56 9.42239 20.1998L8.94067 19.6594C8.81221 19.5093 8.63558 19.2841 8.41078 18.9839C8.18598 18.6837 7.72674 18.0007 7.03307 16.935C6.3394 15.8693 5.65857 14.736 4.99059 13.5351C4.32261 12.3343 3.5358 10.7507 2.63018 8.78433C1.72455 6.81796 0.886359 4.77654 0.115612 2.66007C0.0385374 2.4199 0 2.21726 0 2.05214C0 1.88703 0.0192687 1.76694 0.0578061 1.69189L0.134881 1.5568C0.327568 1.2716 0.693673 1.129 1.2332 1.129L6.51281 1.08397C6.66696 1.11399 6.81469 1.16277 6.956 1.23032C7.0973 1.29787 7.20006 1.36166 7.26429 1.4217L7.36064 1.48925C7.56617 1.65437 7.72032 1.89453 7.82309 2.20975C8.08 2.96028 8.37545 3.73707 8.70944 4.54013C9.04344 5.34319 9.30677 5.95486 9.49946 6.37515L9.80776 7.02811C10.1803 7.92874 10.54 8.70928 10.8868 9.36974C11.2336 10.0302 11.5452 10.5443 11.8213 10.9121C12.0975 11.2798 12.3641 11.5688 12.621 11.7789C12.8779 11.9891 13.0963 12.0941 13.2761 12.0941C13.456 12.0941 13.6294 12.0566 13.7964 11.9816C13.8221 11.9665 13.8542 11.929 13.8927 11.869C13.9313 11.8089 14.0083 11.6438 14.1239 11.3736C14.2396 11.1034 14.3263 10.7507 14.3841 10.3154C14.4419 9.88009 14.5029 9.27217 14.5671 8.49163C14.6314 7.71108 14.6314 6.77293 14.5671 5.67717C14.5414 5.07675 14.4836 4.52887 14.3937 4.03352C14.3038 3.53818 14.2139 3.19294 14.1239 2.9978L14.0083 2.72761C13.6872 2.21726 13.1412 1.89453 12.3705 1.75944C12.2035 1.72942 12.2356 1.54929 12.4668 1.21906C12.6724 0.933865 12.9164 0.708708 13.199 0.543593C13.8799 0.153321 15.4149 -0.0268044 17.8043 0.00321653C18.8576 0.018227 19.7247 0.115795 20.4055 0.29592C20.6625 0.370973 20.8776 0.472293 21.051 0.599882C21.2245 0.727471 21.3561 0.907596 21.446 1.14026C21.536 1.37292 21.6034 1.61309 21.6484 1.86076C21.6933 2.10843 21.7158 2.44992 21.7158 2.88522C21.7158 3.32053 21.7094 3.73331 21.6965 4.12359C21.6837 4.51386 21.6676 5.04298 21.6484 5.71094C21.6291 6.37891 21.6195 6.99809 21.6195 7.56848C21.6195 7.7336 21.613 8.04882 21.6002 8.51414C21.5873 8.97947 21.5841 9.33972 21.5906 9.5949C21.597 9.85007 21.6195 10.154 21.658 10.5068C21.6965 10.8595 21.7704 11.1522 21.8796 11.3849C21.9888 11.6176 22.1333 11.8014 22.3131 11.9365C22.4159 11.9665 22.5251 11.9966 22.6407 12.0266C22.7563 12.0566 22.9233 11.9741 23.1417 11.7789C23.3601 11.5838 23.6041 11.3249 23.8739 11.0021C24.1437 10.6794 24.4777 10.1766 24.8759 9.49358C25.2741 8.8106 25.7108 8.00379 26.1861 7.07314C26.9569 5.51205 27.6441 3.82338 28.2479 2.00711C28.2993 1.85701 28.3635 1.72567 28.4406 1.61309C28.5177 1.50051 28.5883 1.4217 28.6525 1.37667L28.7296 1.30913L28.826 1.25284L29.0764 1.18529L29.4618 1.17403L35.0112 1.129C35.5122 1.05395 35.9233 1.07271 36.2444 1.18529C36.5655 1.29787 36.7646 1.4217 36.8417 1.5568L36.9573 1.78196Z" fill="white"/>
</svg>
