<svg width="62" height="47" viewBox="0 0 62 47" fill="none" xmlns="http://www.w3.org/2000/svg">
<path d="M12.895 12.75H12.8953C16.01 12.7483 18.9965 11.51 21.1986 9.30725L24.3106 6.20273L24.3111 6.20225C24.9187 5.59445 25.7423 5.25207 26.6017 5.25H35.3911C35.3912 5.25 35.3912 5.25 35.3912 5.25C36.2531 5.25021 37.0796 5.59274 37.6889 6.20225L37.6889 6.2023L40.7939 9.30725C40.7939 9.30727 40.7939 9.30728 40.7939 9.3073C41.8852 10.3989 43.1809 11.2648 44.607 11.8555C46.033 12.4462 47.5615 12.7502 49.105 12.75C49.105 12.75 49.105 12.75 49.1051 12.75H53.5C54.3619 12.75 55.1886 13.0924 55.7981 13.7019C56.4076 14.3114 56.75 15.138 56.75 16V38.5C56.75 39.3619 56.4076 40.1886 55.7981 40.7981C55.1886 41.4076 54.3619 41.75 53.5 41.75H8.5C7.63805 41.75 6.8114 41.4076 6.2019 40.7981C5.59241 40.1886 5.25 39.3619 5.25 38.5V16C5.25 15.138 5.59241 14.3114 6.2019 13.7019C6.8114 13.0924 7.63805 12.75 8.5 12.75H12.895ZM44.1561 5.949L44.1561 5.94895L41.0511 2.844C39.5512 1.3436 37.5167 0.500453 35.3951 0.5H35.395H26.605H26.6049C24.4833 0.500453 22.4488 1.3436 20.9489 2.844L17.8439 5.94895L17.8439 5.949C16.5315 7.26182 14.7513 7.99958 12.895 8C12.895 8 12.8949 8 12.8949 8H8.5C6.37827 8 4.34344 8.84285 2.84315 10.3431C1.34285 11.8434 0.5 13.8783 0.5 16V38.5C0.5 40.6217 1.34285 42.6566 2.84315 44.1569C4.34344 45.6571 6.37827 46.5 8.5 46.5H53.5C55.6217 46.5 57.6566 45.6571 59.1569 44.1569C60.6571 42.6566 61.5 40.6217 61.5 38.5V16C61.5 13.8783 60.6571 11.8434 59.1569 10.3431C57.6566 8.84285 55.6217 8 53.5 8H49.1051C49.1051 8 49.105 8 49.105 8C47.2487 7.99958 45.4685 7.26182 44.1561 5.949Z" fill="white" stroke="white"/>
<path d="M31 34.25C28.6462 34.25 26.3888 33.315 24.7244 31.6506C23.06 29.9862 22.125 27.7288 22.125 25.375C22.125 23.0212 23.06 20.7638 24.7244 19.0994C26.3888 17.435 28.6462 16.5 31 16.5C33.3538 16.5 35.6112 17.435 37.2756 19.0994C38.94 20.7638 39.875 23.0212 39.875 25.375C39.875 27.7288 38.94 29.9862 37.2756 31.6506C35.6112 33.315 33.3538 34.25 31 34.25ZM31 39C34.6136 39 38.0791 37.5645 40.6343 35.0093C43.1895 32.4541 44.625 28.9886 44.625 25.375C44.625 21.7614 43.1895 18.2959 40.6343 15.7407C38.0791 13.1855 34.6136 11.75 31 11.75C27.3864 11.75 23.9209 13.1855 21.3657 15.7407C18.8105 18.2959 17.375 21.7614 17.375 25.375C17.375 28.9886 18.8105 32.4541 21.3657 35.0093C23.9209 37.5645 27.3864 39 31 39ZM12.0544 19.5544C12.4998 19.109 12.75 18.5049 12.75 17.875C12.75 17.2451 12.4998 16.641 12.0544 16.1956C11.609 15.7502 11.0049 15.5 10.375 15.5C9.74511 15.5 9.14102 15.7502 8.69562 16.1956C8.25022 16.641 8 17.2451 8 17.875C8 18.5049 8.25022 19.109 8.69562 19.5544C9.14102 19.9998 9.74511 20.25 10.375 20.25C11.0049 20.25 11.609 19.9998 12.0544 19.5544Z" fill="white" stroke="white"/>
</svg>
