<svg width="51" height="50" viewBox="0 0 51 50" fill="none" xmlns="http://www.w3.org/2000/svg">
<path d="M36.9019 31.9445C39.6915 27.9467 40.9281 23.062 40.3683 18.2086C39.7908 13.2014 37.344 8.59688 33.5174 5.31624C29.6908 2.03559 24.7666 0.320772 19.7299 0.514843C14.6933 0.708914 9.91564 2.79757 6.35282 6.36294C2.79 9.92831 0.704764 14.7075 0.514297 19.7442C0.32383 24.781 2.04218 29.704 5.32556 33.5283C8.60894 37.3525 13.2152 39.7961 18.2228 40.3699C23.0752 40.9261 27.9577 39.6869 31.9529 36.8961C31.9587 36.9021 31.9645 36.9081 31.9703 36.9141L31.9703 36.9142L31.9751 36.919L43.525 48.4689C43.5251 48.4689 43.5251 48.469 43.5251 48.469C44.1814 49.1256 45.0716 49.4947 46 49.495C46.9284 49.4954 47.8189 49.1269 48.4756 48.4706C49.1323 47.8144 49.5015 46.9241 49.5018 45.9957C49.5021 45.0673 49.1336 44.1767 48.4774 43.52L48.4772 43.5199L36.9294 31.972C36.929 31.9717 36.9286 31.9713 36.9283 31.9709C36.9195 31.9621 36.9107 31.9533 36.9019 31.9445ZM36.5027 20.4944C36.5027 22.5956 36.0888 24.6762 35.2848 26.6174C34.4807 28.5586 33.3021 30.3224 31.8164 31.8082C30.3307 33.2939 28.5668 34.4724 26.6256 35.2765C24.6844 36.0806 22.6038 36.4944 20.5027 36.4944C18.4015 36.4944 16.321 36.0806 14.3798 35.2765C12.4385 34.4724 10.6747 33.2939 9.18898 31.8082C7.70325 30.3224 6.5247 28.5586 5.72062 26.6174C4.91655 24.6762 4.50269 22.5956 4.50269 20.4944C4.50269 16.251 6.1884 12.1813 9.18899 9.18073C12.1896 6.18015 16.2592 4.49444 20.5027 4.49444C24.7462 4.49444 28.8158 6.18015 31.8164 9.18073C34.817 12.1813 36.5027 16.251 36.5027 20.4944Z" fill="white" stroke="white"/>
</svg>
