<svg width="50" height="50" viewBox="0 0 50 50" fill="none" xmlns="http://www.w3.org/2000/svg">
<path d="M11.9802 45.7756L14.9835 42.7723L7.22772 35.0165L4.22442 38.0198V41.5512H8.44884V45.7756H11.9802ZM29.2409 15.1485C29.2409 14.6645 28.9989 14.4224 28.5149 14.4224C28.2948 14.4224 28.1078 14.4994 27.9538 14.6535L10.066 32.5413C9.91199 32.6953 9.83498 32.8823 9.83498 33.1023C9.83498 33.5864 10.077 33.8284 10.5611 33.8284C10.7811 33.8284 10.9681 33.7514 11.1221 33.5974L29.0099 15.7096C29.1639 15.5556 29.2409 15.3685 29.2409 15.1485ZM27.4587 8.81188L41.1881 22.5413L13.7294 50H0V36.2706L27.4587 8.81188ZM50 11.9802C50 13.1463 49.593 14.1364 48.7789 14.9505L43.3003 20.429L29.571 6.69967L35.0495 1.25413C35.8416 0.418042 36.8317 0 38.0198 0C39.1859 0 40.187 0.418042 41.0231 1.25413L48.7789 8.9769C49.593 9.83498 50 10.8361 50 11.9802Z" fill="white"/>
</svg>
